<svg xmlns="http://www.w3.org/2000/svg" width="600" height="3000" viewBox="0 0 158.75 793.75"><defs><path id="n" d="M23.408 163.21h115.493v38.869H23.408z"/><path id="m" d="M172.338 64.101h130.626v34.045H172.338z"/><path id="l" d="M86.634 115.124H209.1v46.262H86.634z"/><path id="k" d="M270.528 109.986h132.14v47.669h-132.14z"/><path id="j" d="M134.996 348.569h29.747v23.595h-29.747z"/><path id="i" d="M98.027 367.533h45.054v25.866H98.027z"/><path id="a" d="M25.608 15.362h291.031v108.551H25.608z"/><path id="e" d="M362.781 423.497h51.014v39.151h-51.014z"/><path id="f" d="M411.449 411.932h79.054v40.051h-79.054z"/><path id="g" d="M469.54 425.097h41.975v35.22H469.54z"/><path id="h" d="M363.041 432.641h49.163v43.985h-49.163z"/><marker id="b" markerHeight="1" markerWidth="1" orient="auto-start-reverse" preserveAspectRatio="xMidYMid" refX="0" refY="0" style="overflow:visible" viewBox="0 0 1 1"><path d="M3-3 0 0l3 3" style="fill:none;stroke:context-stroke;stroke-width:1;stroke-linecap:butt" transform="rotate(180 .125 0)"/></marker><marker id="c" markerHeight="1" markerWidth="1" orient="auto-start-reverse" preserveAspectRatio="xMidYMid" refX="0" refY="0" style="overflow:visible" viewBox="0 0 1 1"><path d="M3-3 0 0l3 3" style="fill:none;stroke:context-stroke;stroke-width:1;stroke-linecap:butt" transform="rotate(180 .125 0)"/></marker><marker id="d" markerHeight="1" markerWidth="1" orient="auto-start-reverse" preserveAspectRatio="xMidYMid" refX="0" refY="0" style="overflow:visible" viewBox="0 0 1 1"><path d="M3-3 0 0l3 3" style="fill:none;stroke:context-stroke;stroke-width:1;stroke-linecap:butt" transform="rotate(180 .125 0)"/></marker></defs><text xml:space="preserve" style="font-size:14.6667px;line-height:1.25;font-family:sans-serif;white-space:pre;shape-inside:url(#a);display:inline" transform="scale(.26458)"><tspan x="25.607" y="28.338">myPartN.svg</tspan></text><path d="M16.508 29.162h116.896v97.49H16.508z" style="fill:#fff;stroke:#fff;stroke-width:.264583;stroke-linejoin:bevel"/><circle cx="62.727" cy="78.28" r="7.272" style="fill:none;stroke:#ccc;stroke-width:.264583;stroke-linejoin:bevel"/><circle cx="62.727" cy="78.28" r="13.976" style="fill:none;stroke:#ccc;stroke-width:.264583;stroke-linejoin:bevel"/><circle cx="62.727" cy="78.28" r="35.213" style="fill:none;stroke:#ccc;stroke-width:.264583;stroke-linejoin:bevel"/><path d="M62.727 113.493h63.26M62.727 42.803h63.26M62.727 64.304h53.101M62.727 92.388h53.101M62.727 85.553h42.454M62.727 71.008h42.454" style="fill:none;stroke:#ccc;stroke-width:.264583px;stroke-linecap:butt;stroke-linejoin:miter;stroke-opacity:1"/><path d="M105.181 71.008v14.545" style="fill:none;stroke:#000;stroke-width:.264583px;stroke-linecap:butt;stroke-linejoin:miter;stroke-opacity:1;marker-start:url(#b);marker-end:url(#b)"/><path d="M114.941 64.528V92" style="fill:none;stroke:#000;stroke-width:.264583px;stroke-linecap:butt;stroke-linejoin:miter;stroke-opacity:1;marker-start:url(#c);marker-end:url(#c)"/><path d="M125.987 42.925v70.444" style="fill:none;stroke:#000;stroke-width:.264583px;stroke-linecap:butt;stroke-linejoin:miter;stroke-opacity:1;marker-start:url(#d);marker-end:url(#d)"/><text xml:space="preserve" style="font-size:14.6667px;line-height:1.25;font-family:sans-serif;white-space:pre;shape-inside:url(#e);display:inline" transform="translate(9.42 -35.92)scale(.26458)"><tspan x="362.781" y="436.473">D1</tspan></text><text xml:space="preserve" style="font-size:14.6667px;line-height:1.25;font-family:sans-serif;white-space:pre;shape-inside:url(#f);display:inline" transform="translate(6.314 -32.63)scale(.26458)"><tspan x="411.449" y="424.908">D2</tspan></text><text xml:space="preserve" style="font-size:14.6667px;line-height:1.25;font-family:sans-serif;white-space:pre;shape-inside:url(#g);display:inline" transform="translate(2.592 -36.193)scale(.26458)"><tspan x="469.541" y="438.072">D3</tspan></text><path d="M48.744 110.698v13.762M76.709 110.698v13.762" style="fill:none;stroke:#ccc;stroke-width:.264583px;stroke-linecap:butt;stroke-linejoin:miter;stroke-opacity:1"/><path d="M48.744 124.46H76.71" style="fill:none;stroke:#000;stroke-width:.264583px;stroke-linecap:butt;stroke-linejoin:miter;stroke-opacity:1;marker-start:url(#b);marker-end:url(#b)"/><text xml:space="preserve" style="font-size:14.6667px;line-height:1.25;font-family:sans-serif;white-space:pre;shape-inside:url(#h);display:inline" transform="translate(-35.079 5.112)scale(.26458)"><tspan x="363.041" y="445.617">L1</tspan></text><path d="M57.509 83.346c.148 10.584-2.63 19.917-8.866 27.3 9.193-3.099 12.116-7.04 13.983-18.343" style="fill:none;stroke:#000;stroke-width:.52916667;stroke-linecap:butt;stroke-linejoin:miter;stroke-opacity:1"/><path d="M67.743 83.346c-.149 10.584 2.629 19.917 8.865 27.3-9.192-3.099-12.115-7.04-13.982-18.343M57.61 73.163c.148-10.584-2.63-19.918-8.866-27.3 9.192 3.099 12.115 7.04 13.983 18.343" style="fill:none;stroke:#000;stroke-width:.52916667;stroke-linecap:butt;stroke-linejoin:miter;stroke-opacity:1"/><path d="M67.844 73.163c-.15-10.584 2.629-19.918 8.865-27.3-9.192 3.099-12.115 7.04-13.982 18.343M57.61 83.347c-10.585-.15-19.918 2.629-27.301 8.865 3.1-9.192 7.04-12.115 18.344-13.982" style="fill:none;stroke:#000;stroke-width:.52916667;stroke-linecap:butt;stroke-linejoin:miter;stroke-opacity:1"/><path d="M57.61 73.112c-10.585.15-19.918-2.629-27.301-8.865 3.1 9.192 7.04 12.115 18.344 13.983M67.843 73.112c10.585.15 19.918-2.629 27.301-8.865-3.1 9.192-7.04 12.115-18.344 13.982" style="fill:none;stroke:#000;stroke-width:.52916667;stroke-linecap:butt;stroke-linejoin:miter;stroke-opacity:1"/><path d="M67.843 83.347c10.585-.15 19.918 2.629 27.301 8.865-3.1-9.192-7.04-12.115-18.344-13.983" style="fill:none;stroke:#000;stroke-width:.52916667;stroke-linecap:butt;stroke-linejoin:miter;stroke-opacity:1"/><path d="M48.653 78.23h-18.52" style="fill:none;stroke:#00f;stroke-width:.264583px;stroke-linecap:butt;stroke-linejoin:miter;stroke-opacity:1"/><path d="m48.75 78.28-17.895 2.754" style="fill:none;stroke:#00f;stroke-width:.264583px;stroke-linecap:butt;stroke-linejoin:miter;stroke-opacity:1;marker-end:url(#b)"/><path d="M34.817 78.094s-.493.666-.55 1.06c-.056.405.24 1.202.24 1.202" style="fill:none;stroke:#00f;stroke-width:.264583px;stroke-linecap:butt;stroke-linejoin:miter;stroke-opacity:1"/><text xml:space="preserve" style="font-size:14.6667px;line-height:1.25;font-family:sans-serif;white-space:pre;shape-inside:url(#i);display:inline;fill:#00f" transform="translate(3.048 -23.198)scale(.26458)"><tspan x="98.027" y="380.51">AS</tspan></text><path d="m43.857 96.998 13.652-13.652-20.294 1.456" style="fill:none;stroke:#00f;stroke-width:.264583px;stroke-linecap:butt;stroke-linejoin:miter;stroke-opacity:1;marker-end:url(#b)"/><path d="M45.457 84.104s.09 2.73.74 3.873c.784 1.38 3.562 3.162 3.562 3.162" style="fill:none;stroke:#00f;stroke-width:.264583px;stroke-linecap:butt;stroke-linejoin:miter;stroke-opacity:1"/><text xml:space="preserve" style="font-size:14.6667px;line-height:1.25;font-family:sans-serif;white-space:pre;shape-inside:url(#j);display:inline;fill:#00f" transform="translate(5.471 -5.128)scale(.26458)"><tspan x="134.996" y="361.545">AL</tspan></text><text xml:space="preserve" style="font-size:14.6667px;line-height:1.25;font-family:sans-serif;white-space:pre;shape-inside:url(#k);display:inline;fill:green" transform="translate(8.082 6.118)scale(.26458)"><tspan x="270.527" y="122.963">rounded(RC1)</tspan></text><text xml:space="preserve" style="font-size:14.6667px;line-height:1.25;font-family:sans-serif;white-space:pre;shape-inside:url(#l);display:inline;fill:green" transform="translate(-4.331 5.913)scale(.26458)"><tspan x="86.635" y="128.102">wideAcc(RC3)</tspan></text><text xml:space="preserve" style="font-size:14.6667px;line-height:1.25;font-family:sans-serif;white-space:pre;shape-inside:url(#m);display:inline;fill:green" transform="translate(3.703 13.412)scale(.26458)"><tspan x="172.338" y="77.078">widened(RC2)</tspan></text><text xml:space="preserve" style="font-size:14.6667px;line-height:1.25;font-family:sans-serif;white-space:pre;shape-inside:url(#n);display:inline;fill:green" transform="translate(12.218 8.456)scale(.26458)"><tspan x="23.408" y="176.186">rounded(RC4)</tspan></text><path d="m31.129 56.668 23.787 13.76" style="fill:none;stroke:green;stroke-width:.264583px;stroke-linecap:butt;stroke-linejoin:miter;stroke-opacity:1;marker-end:url(#b)"/><path d="m39.434 39.995 6.676 4.002" style="fill:none;stroke:green;stroke-width:.264583px;stroke-linecap:butt;stroke-linejoin:miter;stroke-opacity:1;marker-end:url(#b)"/><path d="m62.975 34.57-.421 20.189" style="fill:none;stroke:green;stroke-width:.264583px;stroke-linecap:butt;stroke-linejoin:miter;stroke-opacity:1;marker-end:url(#b)"/><path d="m84.666 38.912-5.84 5.661" style="fill:none;stroke:green;stroke-width:.264583px;stroke-linecap:butt;stroke-linejoin:miter;stroke-opacity:1;marker-end:url(#b)"/></svg>