<svg xmlns="http://www.w3.org/2000/svg" width="427.013" height="345.531" viewBox="0 0 112.98 91.422"><defs><path id="n" d="M134.996 348.569h29.747v23.595h-29.747z"/><path id="m" d="M98.027 367.533h45.054v25.866H98.027z"/><path id="l" d="M156.033 204.837h36.304v25.492h-36.304z"/><path id="k" d="M209.184 153.358h43.98v29.518h-43.98z"/><path id="j" d="M379.473 228.373h31.087v25.324h-31.087z"/><path id="i" d="M375.6 252.906h30.737v23.519H375.6z"/><path id="e" d="M362.781 423.497h51.014v39.151h-51.014z"/><path id="f" d="M411.449 411.932h79.054v40.051h-79.054z"/><path id="g" d="M469.54 425.097h41.975v35.22H469.54z"/><path id="h" d="M363.041 432.641h49.163v43.985h-49.163z"/><marker id="b" markerHeight="1" markerWidth="1" orient="auto-start-reverse" preserveAspectRatio="xMidYMid" refX="0" refY="0" style="overflow:visible" viewBox="0 0 1 1"><path d="M3-3 0 0l3 3" style="fill:none;stroke:context-stroke;stroke-width:1;stroke-linecap:butt" transform="rotate(180 .125 0)"/></marker><marker id="c" markerHeight="1" markerWidth="1" orient="auto-start-reverse" preserveAspectRatio="xMidYMid" refX="0" refY="0" style="overflow:visible" viewBox="0 0 1 1"><path d="M3-3 0 0l3 3" style="fill:none;stroke:context-stroke;stroke-width:1;stroke-linecap:butt" transform="rotate(180 .125 0)"/></marker><marker id="d" markerHeight="1" markerWidth="1" orient="auto-start-reverse" preserveAspectRatio="xMidYMid" refX="0" refY="0" style="overflow:visible" viewBox="0 0 1 1"><path d="M3-3 0 0l3 3" style="fill:none;stroke:context-stroke;stroke-width:1;stroke-linecap:butt" transform="rotate(180 .125 0)"/></marker><marker id="a" markerHeight="1" markerWidth="1" orient="auto-start-reverse" preserveAspectRatio="xMidYMid" refX="0" refY="0" style="overflow:visible" viewBox="0 0 1 1"><path d="M3-3 0 0l3 3" style="fill:none;stroke:context-stroke;stroke-width:1;stroke-linecap:butt" transform="rotate(180 .125 0)"/></marker></defs><g transform="translate(-22.665 -38.245)"><path d="M22.797 38.377h112.716v91.157H22.797z" style="fill:#fff;stroke:#fff;stroke-width:.264583;stroke-linejoin:bevel"/><path d="m46.484 56.907 7.116-1.39" style="fill:none;stroke:#f60;stroke-width:.264583px;stroke-linecap:butt;stroke-linejoin:miter;stroke-opacity:1;marker-end:url(#a)"/><circle cx="62.727" cy="78.28" r="7.272" style="fill:none;stroke:#ccc;stroke-width:.264583;stroke-linejoin:bevel"/><circle cx="62.727" cy="78.28" r="13.976" style="fill:none;stroke:#ccc;stroke-width:.264583;stroke-linejoin:bevel"/><circle cx="62.727" cy="78.28" r="35.213" style="fill:none;stroke:#ccc;stroke-width:.264583;stroke-linejoin:bevel"/><path d="M62.727 113.493h63.26M62.727 42.803h63.26M62.727 64.304h53.101M62.727 92.388h53.101M62.727 85.553h42.454M62.727 71.008h42.454" style="fill:none;stroke:#ccc;stroke-width:.264583px;stroke-linecap:butt;stroke-linejoin:miter;stroke-opacity:1"/><path d="M105.181 71.008v14.545" style="fill:none;stroke:#000;stroke-width:.264583px;stroke-linecap:butt;stroke-linejoin:miter;stroke-opacity:1;marker-start:url(#b);marker-end:url(#b)"/><path d="M114.941 64.528V92" style="fill:none;stroke:#000;stroke-width:.264583px;stroke-linecap:butt;stroke-linejoin:miter;stroke-opacity:1;marker-start:url(#c);marker-end:url(#c)"/><path d="M125.987 42.925v70.444" style="fill:none;stroke:#000;stroke-width:.264583px;stroke-linecap:butt;stroke-linejoin:miter;stroke-opacity:1;marker-start:url(#d);marker-end:url(#d)"/><text xml:space="preserve" style="font-size:14.6667px;line-height:1.25;font-family:sans-serif;white-space:pre;shape-inside:url(#e);display:inline" transform="translate(9.42 -35.92)scale(.26458)"><tspan x="362.781" y="436.473">D1</tspan></text><text xml:space="preserve" style="font-size:14.6667px;line-height:1.25;font-family:sans-serif;white-space:pre;shape-inside:url(#f);display:inline" transform="translate(6.314 -32.63)scale(.26458)"><tspan x="411.449" y="424.908">D2</tspan></text><text xml:space="preserve" style="font-size:14.6667px;line-height:1.25;font-family:sans-serif;white-space:pre;shape-inside:url(#g);display:inline" transform="translate(2.592 -36.193)scale(.26458)"><tspan x="469.541" y="438.072">D3</tspan></text><path d="M48.744 110.698v13.762M76.709 110.698v13.762" style="fill:none;stroke:#ccc;stroke-width:.264583px;stroke-linecap:butt;stroke-linejoin:miter;stroke-opacity:1"/><path d="M48.744 124.46H76.71" style="fill:none;stroke:#000;stroke-width:.264583px;stroke-linecap:butt;stroke-linejoin:miter;stroke-opacity:1;marker-start:url(#b);marker-end:url(#b)"/><text xml:space="preserve" style="font-size:14.6667px;line-height:1.25;font-family:sans-serif;white-space:pre;shape-inside:url(#h);display:inline" transform="translate(-35.079 5.112)scale(.26458)"><tspan x="363.041" y="445.617">L1</tspan></text><path d="M57.509 83.346c.148 10.584-2.63 19.917-8.866 27.3 9.193-3.099 12.116-7.04 13.983-18.343" style="fill:none;stroke:#000;stroke-width:.529167;stroke-linecap:butt;stroke-linejoin:miter;stroke-opacity:1"/><path d="M67.743 83.346c-.149 10.584 2.629 19.917 8.865 27.3-9.192-3.099-12.115-7.04-13.982-18.343M57.61 73.163c.148-10.584-2.63-19.918-8.866-27.3 9.192 3.099 12.115 7.04 13.983 18.343" style="fill:none;stroke:#000;stroke-width:.529167;stroke-linecap:butt;stroke-linejoin:miter;stroke-opacity:1"/><path d="M67.844 73.163c-.15-10.584 2.629-19.918 8.865-27.3-9.192 3.099-12.115 7.04-13.982 18.343M57.61 83.347c-10.585-.15-19.918 2.629-27.301 8.865 3.1-9.192 7.04-12.115 18.344-13.982" style="fill:none;stroke:#000;stroke-width:.529167;stroke-linecap:butt;stroke-linejoin:miter;stroke-opacity:1"/><path d="M57.61 73.112c-10.585.15-19.918-2.629-27.301-8.865 3.1 9.192 7.04 12.115 18.344 13.983M67.843 73.112c10.585.15 19.918-2.629 27.301-8.865-3.1 9.192-7.04 12.115-18.344 13.982" style="fill:none;stroke:#000;stroke-width:.529167;stroke-linecap:butt;stroke-linejoin:miter;stroke-opacity:1"/><path d="M67.843 83.347c10.585-.15 19.918 2.629 27.301 8.865-3.1-9.192-7.04-12.115-18.344-13.983" style="fill:none;stroke:#000;stroke-width:.529167;stroke-linecap:butt;stroke-linejoin:miter;stroke-opacity:1"/><path d="m76.8 78.23 18.247-13.927" style="fill:none;stroke:#f0f;stroke-width:.264583px;stroke-linecap:butt;stroke-linejoin:miter;stroke-opacity:1"/><path d="m85.924 71.266 2.444 3.204" style="fill:none;stroke:#f0f;stroke-width:.264583px;stroke-linecap:butt;stroke-linejoin:miter;stroke-opacity:1;marker-start:url(#b);marker-end:url(#b)"/><text xml:space="preserve" style="font-size:14.6667px;line-height:1.25;font-family:sans-serif;white-space:pre;shape-inside:url(#i);fill:#f0f" transform="translate(-10.868 2.317)scale(.26458)"><tspan x="375.6" y="265.883">ES</tspan></text><path d="m67.843 73.112 27.204-8.808" style="fill:none;stroke:green;stroke-width:.264583px;stroke-linecap:butt;stroke-linejoin:miter;stroke-opacity:1"/><path d="m81.425 68.719.808 2.574" style="fill:none;stroke:green;stroke-width:.264583px;stroke-linecap:butt;stroke-linejoin:miter;stroke-opacity:1;marker-start:url(#b);marker-end:url(#b)"/><text xml:space="preserve" style="font-size:14.6667px;line-height:1.25;font-family:sans-serif;white-space:pre;shape-inside:url(#j);fill:green" transform="translate(-21.282 3.73)scale(.26458)"><tspan x="379.473" y="241.35">EL</tspan></text><text xml:space="preserve" style="font-size:14.6667px;line-height:1.25;font-family:sans-serif;white-space:pre;shape-inside:url(#k);fill:#f60" transform="scale(.26458)"><tspan x="209.184" y="166.334">RS</tspan></text><text xml:space="preserve" style="font-size:14.6667px;line-height:1.25;font-family:sans-serif;white-space:pre;shape-inside:url(#l);fill:#f60" transform="scale(.26458)"><tspan x="156.033" y="217.814">RL</tspan></text><path d="m59.682 44.714-2.24 4.572" style="fill:none;stroke:#f60;stroke-width:.264583px;stroke-linecap:butt;stroke-linejoin:miter;stroke-opacity:1;marker-end:url(#b)"/><path d="M48.653 78.23h-18.52" style="fill:none;stroke:#00f;stroke-width:.264583px;stroke-linecap:butt;stroke-linejoin:miter;stroke-opacity:1"/><path d="m48.75 78.28-17.895 2.754" style="fill:none;stroke:#00f;stroke-width:.264583px;stroke-linecap:butt;stroke-linejoin:miter;stroke-opacity:1;marker-end:url(#b)"/><path d="M34.817 78.094s-.493.666-.55 1.06c-.056.405.24 1.202.24 1.202" style="fill:none;stroke:#00f;stroke-width:.264583px;stroke-linecap:butt;stroke-linejoin:miter;stroke-opacity:1"/><text xml:space="preserve" style="font-size:14.6667px;line-height:1.25;font-family:sans-serif;white-space:pre;shape-inside:url(#m);fill:#00f" transform="translate(3.048 -23.198)scale(.26458)"><tspan x="98.027" y="380.51">AS</tspan></text><path d="m43.857 96.998 13.652-13.652-20.294 1.456" style="fill:none;stroke:#00f;stroke-width:.264583px;stroke-linecap:butt;stroke-linejoin:miter;stroke-opacity:1;marker-end:url(#b)"/><path d="M45.457 84.104s.09 2.73.74 3.873c.784 1.38 3.562 3.162 3.562 3.162" style="fill:none;stroke:#00f;stroke-width:.264583px;stroke-linecap:butt;stroke-linejoin:miter;stroke-opacity:1"/><text xml:space="preserve" style="font-size:14.6667px;line-height:1.25;font-family:sans-serif;white-space:pre;shape-inside:url(#n);fill:#00f" transform="translate(5.471 -5.128)scale(.26458)"><tspan x="134.996" y="361.545">AL</tspan></text></g></svg>