<svg xmlns="http://www.w3.org/2000/svg" width="427.013" height="345.531" viewBox="0 0 112.98 91.422"><defs><path id="g" d="M363.041 432.641h49.163v43.985h-49.163z"/><path id="f" d="M469.54 425.097h41.975v35.22H469.54z"/><path id="e" d="M411.449 411.932h79.054v40.051h-79.054z"/><path id="d" d="M362.781 423.497h51.014v39.151h-51.014z"/><marker id="a" markerHeight="1" markerWidth="1" orient="auto-start-reverse" preserveAspectRatio="xMidYMid" refX="0" refY="0" style="overflow:visible" viewBox="0 0 1 1"><path d="M3-3 0 0l3 3" style="fill:none;stroke:context-stroke;stroke-width:1;stroke-linecap:butt" transform="rotate(180 .125 0)"/></marker><marker id="b" markerHeight="1" markerWidth="1" orient="auto-start-reverse" preserveAspectRatio="xMidYMid" refX="0" refY="0" style="overflow:visible" viewBox="0 0 1 1"><path d="M3-3 0 0l3 3" style="fill:none;stroke:context-stroke;stroke-width:1;stroke-linecap:butt" transform="rotate(180 .125 0)"/></marker><marker id="c" markerHeight="1" markerWidth="1" orient="auto-start-reverse" preserveAspectRatio="xMidYMid" refX="0" refY="0" style="overflow:visible" viewBox="0 0 1 1"><path d="M3-3 0 0l3 3" style="fill:none;stroke:context-stroke;stroke-width:1;stroke-linecap:butt" transform="rotate(180 .125 0)"/></marker></defs><g transform="translate(-29.374 -24.826)"><path d="M29.506 24.958h112.716v91.157H29.506z" style="fill:#fff;stroke:#fff;stroke-width:.264583;stroke-linejoin:bevel"/><circle cx="69.435" cy="64.861" r="7.272" style="fill:none;stroke:#ccc;stroke-width:.264583;stroke-linejoin:bevel"/><circle cx="69.435" cy="64.861" r="13.976" style="fill:none;stroke:#ccc;stroke-width:.264583;stroke-linejoin:bevel"/><circle cx="69.435" cy="64.861" r="35.213" style="fill:none;stroke:#ccc;stroke-width:.264583;stroke-linejoin:bevel"/><path d="M69.435 100.074h63.26M69.435 29.384h63.26M69.435 50.885h53.102M69.435 78.97h53.102M69.435 72.134h42.455M69.435 57.589h42.455" style="fill:none;stroke:#ccc;stroke-width:.264583px;stroke-linecap:butt;stroke-linejoin:miter;stroke-opacity:1"/><path d="M111.89 57.589v14.545" style="fill:none;stroke:#000;stroke-width:.264583px;stroke-linecap:butt;stroke-linejoin:miter;stroke-opacity:1;marker-start:url(#a);marker-end:url(#a)"/><path d="M121.65 51.109v27.473" style="fill:none;stroke:#000;stroke-width:.264583px;stroke-linecap:butt;stroke-linejoin:miter;stroke-opacity:1;marker-start:url(#b);marker-end:url(#b)"/><path d="M132.695 29.506V99.95" style="fill:none;stroke:#000;stroke-width:.264583px;stroke-linecap:butt;stroke-linejoin:miter;stroke-opacity:1;marker-start:url(#c);marker-end:url(#c)"/><text xml:space="preserve" style="font-size:14.6667px;line-height:1.25;font-family:sans-serif;white-space:pre;shape-inside:url(#d)" transform="translate(16.129 -49.338)scale(.26458)"><tspan x="362.781" y="436.473">D1</tspan></text><text xml:space="preserve" style="font-size:14.6667px;line-height:1.25;font-family:sans-serif;white-space:pre;shape-inside:url(#e)" transform="translate(13.022 -46.049)scale(.26458)"><tspan x="411.449" y="424.908">D2</tspan></text><text xml:space="preserve" style="font-size:14.6667px;line-height:1.25;font-family:sans-serif;white-space:pre;shape-inside:url(#f)" transform="translate(9.3 -49.611)scale(.26458)"><tspan x="469.541" y="438.072">D3</tspan></text><path d="M55.453 97.28v13.761M83.417 97.28v13.761" style="fill:none;stroke:#ccc;stroke-width:.264583px;stroke-linecap:butt;stroke-linejoin:miter;stroke-opacity:1"/><path d="m64.318 59.744-8.865-27.3 13.982 18.343 13.982-18.344-8.865 27.301M64.318 69.979l-27.3 8.865L55.36 64.86 37.017 50.88l27.3 8.865M74.552 69.979l8.865 27.3-13.982-18.343-13.982 18.343 8.865-27.3M74.552 59.744l27.301-8.865L83.509 64.86l18.344 13.983-27.3-8.865" style="fill:none;stroke:#000;stroke-width:.264583px;stroke-linecap:butt;stroke-linejoin:miter;stroke-opacity:1"/><path d="M55.453 111.041h27.964" style="fill:none;stroke:#000;stroke-width:.264583px;stroke-linecap:butt;stroke-linejoin:miter;stroke-opacity:1;marker-start:url(#a);marker-end:url(#a)"/><text xml:space="preserve" style="font-size:14.6667px;line-height:1.25;font-family:sans-serif;white-space:pre;shape-inside:url(#g)" transform="translate(-28.37 -8.307)scale(.26458)"><tspan x="363.041" y="445.617">L1</tspan></text></g></svg>